<?xml version="1.0" encoding="iso-8859-1"?>
<!-- Uploaded to: SVG Repo, www.svgrepo.com, Generator: SVG Repo Mixer Tools -->
<svg version="1.1" id="Layer_1" xmlns="http://www.w3.org/2000/svg" xmlns:xlink="http://www.w3.org/1999/xlink" 
	 viewBox="0 0 512 512" xml:space="preserve">
<path style="fill:#688787;" d="M151.083,14.014l-26.575,11.962l0,0h-0.001l-3.714,1.672c-3.881,2.218-7.934,6.471,3.715,11.715
	l0.003,0.002l26.572,11.96h1.956v-37.31H151.083z"/>
<path style="fill:#53CAF9;" d="M293.843,147.792c0,7.377-5.979,13.357-13.357,13.357h-48.974c-7.377,0-13.357-5.979-13.357-13.357
	v-43.567c0-7.377,5.979-13.357,13.357-13.357h48.974c7.377,0,13.357,5.979,13.357,13.357V147.792z"/>
<path style="opacity:0.15;fill:#231F20;enable-background:new    ;" d="M235.965,147.792v-43.567
	c0-7.377,5.979-13.357,13.357-13.357h-17.809c-7.377,0-13.357,5.979-13.357,13.357v43.568c0,7.377,5.979,13.357,13.357,13.357
	h17.809C241.944,161.149,235.965,155.169,235.965,147.792z"/>
<path style="fill:#547475;" d="M383.703,14.014H151.083v37.31h232.619c10.305,0,18.659-8.352,18.659-18.656
	S394.007,14.014,383.703,14.014z"/>
<rect x="337.72" y="14.014" style="fill:#53CAF9;" width="28.197" height="37.31"/>
<path style="opacity:0.15;fill:#231F20;enable-background:new    ;" d="M124.508,39.363l0.003,0.002l4.612,2.076l21.959-9.885h1.956
	h184.677h28.197h17.79c7.132,0,13.325,4.005,16.465,9.885c1.397-2.616,2.194-5.6,2.194-8.772c0-10.303-8.355-18.656-18.659-18.656
	h-17.79h-28.197H153.039h-1.956l-26.575,11.962h-0.001l-3.714,1.672C116.912,29.866,112.859,34.119,124.508,39.363z"/>
<path style="fill:#547475;" d="M472.766,126.116h25.877c7.376,0,13.357,5.979,13.357,13.357V484.63
	c0,7.376-5.98,13.357-13.357,13.357H13.357C5.98,497.987,0,492.006,0,484.63V139.472c0-7.377,5.98-13.357,13.357-13.357h432.699"/>
<polygon style="fill:#DBDDDD;" points="512,210.107 0,210.107 0,462.625 34.645,462.625 62.599,462.625 512,462.625 "/>
<g>
	<path style="fill:#426060;" d="M76.614,177.548H44.708c-4.611,0-8.348-3.736-8.348-8.348s3.736-8.348,8.348-8.348h31.907
		c4.61,0,8.348,3.736,8.348,8.348C84.962,173.811,81.224,177.548,76.614,177.548z"/>
	<path style="fill:#426060;" d="M467.292,177.548h-31.906c-4.611,0-8.348-3.736-8.348-8.348s3.736-8.348,8.348-8.348h31.906
		c4.61,0,8.348,3.736,8.348,8.348C475.64,173.811,471.903,177.548,467.292,177.548z"/>
</g>
<g>
	<path style="fill:#F5F5F5;" d="M43.595,296.341c-2.137,0-4.273-0.815-5.902-2.444c-3.261-3.261-3.261-8.546,0-11.806l36.176-36.176
		c3.259-3.259,8.546-3.259,11.804,0c3.261,3.261,3.261,8.546,0,11.806l-36.175,36.176C47.868,295.526,45.732,296.341,43.595,296.341
		z"/>
	<path style="fill:#F5F5F5;" d="M75.323,323.129c-2.137,0-4.273-0.815-5.902-2.444c-3.261-3.26-3.261-8.546,0-11.806l61.787-61.79
		c3.259-3.261,8.545-3.26,11.805-0.001c3.261,3.26,3.261,8.546,0,11.805l-61.787,61.789
		C79.596,322.313,77.46,323.129,75.323,323.129z"/>
	<path style="fill:#F5F5F5;" d="M52.068,346.382c-2.137,0-4.273-0.816-5.904-2.444c-3.26-3.261-3.26-8.546,0-11.806l5.744-5.743
		c3.259-3.259,8.546-3.259,11.804,0c3.261,3.261,3.261,8.546,0,11.806l-5.743,5.743C56.341,345.568,54.205,346.382,52.068,346.382z"
		/>
</g>
<path style="opacity:0.15;fill:#231F20;enable-background:new    ;" d="M17.809,484.629V139.472c0-7.377,5.98-13.357,13.357-13.357
	H13.357C5.98,126.116,0,132.095,0,139.472V484.63c0,7.376,5.98,13.357,13.357,13.357h17.809
	C23.789,497.986,17.809,492.005,17.809,484.629z"/>
</svg>