<?xml version="1.0" encoding="iso-8859-1"?>
<!-- Uploaded to: SVG Repo, www.svgrepo.com, Generator: SVG Repo Mixer Tools -->
<svg height="800px" width="800px" version="1.1" id="Layer_1" xmlns="http://www.w3.org/2000/svg" xmlns:xlink="http://www.w3.org/1999/xlink" 
	 viewBox="0 0 512 512" xml:space="preserve">
<path style="fill:#9DA6BA;" d="M501.465,200.259V385.58c0,7.564-6.131,13.695-13.695,13.695H24.23
	c-7.564,0-13.695-6.131-13.695-13.695V200.259c0-15.371,12.463-27.833,27.833-27.833h435.263
	C489.002,172.426,501.465,184.889,501.465,200.259z M477.235,251.259c0-5.815-4.72-10.535-10.535-10.535
	c-5.815,0-10.535,4.72-10.535,10.535s4.72,10.535,10.535,10.535C472.515,261.794,477.235,257.075,477.235,251.259z M477.235,288.479
	c0-5.815-4.72-10.535-10.535-10.535c-5.815,0-10.535,4.72-10.535,10.535c0,5.826,4.72,10.535,10.535,10.535
	C472.515,299.014,477.235,294.305,477.235,288.479z M477.235,362.93c0-5.815-4.72-10.535-10.535-10.535
	c-5.815,0-10.535,4.72-10.535,10.535c0,5.815,4.72,10.535,10.535,10.535C472.515,373.465,477.235,368.745,477.235,362.93z
	 M442.817,251.259c0-5.815-4.709-10.535-10.535-10.535c-5.815,0-10.535,4.72-10.535,10.535s4.72,10.535,10.535,10.535
	C438.108,261.794,442.817,257.075,442.817,251.259z M442.817,288.479c0-5.815-4.709-10.535-10.535-10.535
	c-5.815,0-10.535,4.72-10.535,10.535c0,5.826,4.72,10.535,10.535,10.535C438.108,299.014,442.817,294.305,442.817,288.479z
	 M442.817,325.71c0-5.826-4.709-10.535-10.535-10.535c-5.815,0-10.535,4.709-10.535,10.535c0,5.815,4.72,10.535,10.535,10.535
	C438.108,336.245,442.817,331.525,442.817,325.71z M442.817,362.93c0-5.815-4.709-10.535-10.535-10.535
	c-5.815,0-10.535,4.72-10.535,10.535c0,5.815,4.72,10.535,10.535,10.535C438.108,373.465,442.817,368.745,442.817,362.93z
	 M405.597,251.259c0-5.815-4.72-10.535-10.535-10.535c-5.815,0-10.535,4.72-10.535,10.535s4.72,10.535,10.535,10.535
	C400.877,261.794,405.597,257.075,405.597,251.259z M405.597,288.479c0-5.815-4.72-10.535-10.535-10.535
	c-5.815,0-10.535,4.72-10.535,10.535c0,5.826,4.72,10.535,10.535,10.535C400.877,299.014,405.597,294.305,405.597,288.479z
	 M405.597,362.93c0-5.815-4.72-10.535-10.535-10.535c-5.815,0-10.535,4.72-10.535,10.535c0,5.815,4.72,10.535,10.535,10.535
	C400.877,373.465,405.597,368.745,405.597,362.93z M361.002,251.259c0-5.815-4.72-10.535-10.535-10.535
	c-5.826,0-10.535,4.72-10.535,10.535s4.709,10.535,10.535,10.535C356.282,261.794,361.002,257.075,361.002,251.259z
	 M361.002,288.479c0-5.815-4.72-10.535-10.535-10.535c-5.826,0-10.535,4.72-10.535,10.535c0,5.826,4.709,10.535,10.535,10.535
	C356.282,299.014,361.002,294.305,361.002,288.479z M361.002,325.71c0-5.826-4.72-10.535-10.535-10.535
	c-5.826,0-10.535,4.709-10.535,10.535c0,5.815,4.709,10.535,10.535,10.535C356.282,336.245,361.002,331.525,361.002,325.71z
	 M361.002,362.93c0-5.815-4.72-10.535-10.535-10.535c-5.826,0-10.535,4.72-10.535,10.535c0,5.815,4.709,10.535,10.535,10.535
	C356.282,373.465,361.002,368.745,361.002,362.93z M323.771,251.259c0-5.815-4.709-10.535-10.535-10.535
	c-5.815,0-10.535,4.72-10.535,10.535s4.72,10.535,10.535,10.535C319.062,261.794,323.771,257.075,323.771,251.259z M323.771,288.479
	c0-5.815-4.709-10.535-10.535-10.535c-5.815,0-10.535,4.72-10.535,10.535c0,5.826,4.72,10.535,10.535,10.535
	C319.062,299.014,323.771,294.305,323.771,288.479z M323.771,325.71c0-5.826-4.709-10.535-10.535-10.535
	c-5.815,0-10.535,4.709-10.535,10.535c0,5.815,4.72,10.535,10.535,10.535C319.062,336.245,323.771,331.525,323.771,325.71z
	 M323.771,362.93c0-5.815-4.709-10.535-10.535-10.535c-5.815,0-10.535,4.72-10.535,10.535c0,5.815,4.72,10.535,10.535,10.535
	C319.062,373.465,323.771,368.745,323.771,362.93z M286.551,251.259c0-5.815-4.72-10.535-10.535-10.535s-10.535,4.72-10.535,10.535
	s4.72,10.535,10.535,10.535S286.551,257.075,286.551,251.259z M286.551,288.479c0-5.815-4.72-10.535-10.535-10.535
	s-10.535,4.72-10.535,10.535c0,5.826,4.72,10.535,10.535,10.535S286.551,294.305,286.551,288.479z M286.551,325.71
	c0-5.826-4.72-10.535-10.535-10.535s-10.535,4.709-10.535,10.535c0,5.815,4.72,10.535,10.535,10.535S286.551,331.525,286.551,325.71
	z M241.957,251.259c0-5.815-4.72-10.535-10.535-10.535c-5.826,0-10.535,4.72-10.535,10.535s4.709,10.535,10.535,10.535
	C237.237,261.794,241.957,257.075,241.957,251.259z M241.957,288.479c0-5.815-4.72-10.535-10.535-10.535
	c-5.826,0-10.535,4.72-10.535,10.535c0,5.826,4.709,10.535,10.535,10.535C237.237,299.014,241.957,294.305,241.957,288.479z
	 M241.957,325.71c0-5.826-4.72-10.535-10.535-10.535c-5.826,0-10.535,4.709-10.535,10.535c0,5.815,4.709,10.535,10.535,10.535
	C237.237,336.245,241.957,331.525,241.957,325.71z M204.726,251.259c0-5.815-4.709-10.535-10.535-10.535
	c-5.815,0-10.535,4.72-10.535,10.535s4.72,10.535,10.535,10.535C200.017,261.794,204.726,257.075,204.726,251.259z M204.726,288.479
	c0-5.815-4.709-10.535-10.535-10.535c-5.815,0-10.535,4.72-10.535,10.535c0,5.826,4.72,10.535,10.535,10.535
	C200.017,299.014,204.726,294.305,204.726,288.479z M204.726,325.71c0-5.826-4.709-10.535-10.535-10.535
	c-5.815,0-10.535,4.709-10.535,10.535c0,5.815,4.72,10.535,10.535,10.535C200.017,336.245,204.726,331.525,204.726,325.71z
	 M167.506,251.259c0-5.815-4.72-10.535-10.535-10.535c-5.815,0-10.535,4.72-10.535,10.535s4.72,10.535,10.535,10.535
	C162.786,261.794,167.506,257.075,167.506,251.259z M167.506,288.479c0-5.815-4.72-10.535-10.535-10.535
	c-5.815,0-10.535,4.72-10.535,10.535c0,5.826,4.72,10.535,10.535,10.535C162.786,299.014,167.506,294.305,167.506,288.479z
	 M167.506,325.71c0-5.826-4.72-10.535-10.535-10.535c-5.815,0-10.535,4.709-10.535,10.535c0,5.815,4.72,10.535,10.535,10.535
	C162.786,336.245,167.506,331.525,167.506,325.71z M130.286,251.259c0-5.815-4.72-10.535-10.535-10.535
	c-5.826,0-10.535,4.72-10.535,10.535s4.709,10.535,10.535,10.535C125.566,261.794,130.286,257.075,130.286,251.259z
	 M130.286,288.479c0-5.815-4.72-10.535-10.535-10.535c-5.826,0-10.535,4.72-10.535,10.535c0,5.826,4.709,10.535,10.535,10.535
	C125.566,299.014,130.286,294.305,130.286,288.479z M130.286,325.71c0-5.826-4.72-10.535-10.535-10.535
	c-5.826,0-10.535,4.709-10.535,10.535c0,5.815,4.709,10.535,10.535,10.535C125.566,336.245,130.286,331.525,130.286,325.71z
	 M130.286,362.93c0-5.815-4.72-10.535-10.535-10.535c-5.826,0-10.535,4.72-10.535,10.535c0,5.815,4.709,10.535,10.535,10.535
	C125.566,373.465,130.286,368.745,130.286,362.93z M93.055,251.259c0-5.815-4.709-10.535-10.535-10.535
	c-5.815,0-10.535,4.72-10.535,10.535s4.72,10.535,10.535,10.535C88.346,261.794,93.055,257.075,93.055,251.259z M93.055,288.479
	c0-5.815-4.709-10.535-10.535-10.535c-5.815,0-10.535,4.72-10.535,10.535c0,5.826,4.72,10.535,10.535,10.535
	C88.346,299.014,93.055,294.305,93.055,288.479z M93.055,325.71c0-5.826-4.709-10.535-10.535-10.535
	c-5.815,0-10.535,4.709-10.535,10.535c0,5.815,4.72,10.535,10.535,10.535C88.346,336.245,93.055,331.525,93.055,325.71z
	 M93.055,362.93c0-5.815-4.709-10.535-10.535-10.535c-5.815,0-10.535,4.72-10.535,10.535c0,5.815,4.72,10.535,10.535,10.535
	C88.346,373.465,93.055,368.745,93.055,362.93z M55.835,251.259c0-5.815-4.72-10.535-10.535-10.535s-10.535,4.72-10.535,10.535
	s4.72,10.535,10.535,10.535S55.835,257.075,55.835,251.259z M55.835,288.479c0-5.815-4.72-10.535-10.535-10.535
	s-10.535,4.72-10.535,10.535c0,5.826,4.72,10.535,10.535,10.535S55.835,294.305,55.835,288.479z M55.835,325.71
	c0-5.826-4.72-10.535-10.535-10.535s-10.535,4.709-10.535,10.535c0,5.815,4.72,10.535,10.535,10.535S55.835,331.525,55.835,325.71z
	 M55.835,362.93c0-5.815-4.72-10.535-10.535-10.535s-10.535,4.72-10.535,10.535c0,5.815,4.72,10.535,10.535,10.535
	S55.835,368.745,55.835,362.93z"/>
<path d="M466.7,240.724c-5.815,0-10.535,4.72-10.535,10.535s4.72,10.535,10.535,10.535c5.815,0,10.535-4.72,10.535-10.535
	S472.515,240.724,466.7,240.724z"/>
<path d="M466.7,277.944c-5.815,0-10.535,4.72-10.535,10.535c0,5.826,4.72,10.535,10.535,10.535c5.815,0,10.535-4.709,10.535-10.535
	C477.235,282.664,472.515,277.944,466.7,277.944z"/>
<path d="M466.7,352.395c-5.815,0-10.535,4.72-10.535,10.535c0,5.815,4.72,10.535,10.535,10.535c5.815,0,10.535-4.72,10.535-10.535
	C477.235,357.115,472.515,352.395,466.7,352.395z"/>
<path d="M432.282,240.724c-5.815,0-10.535,4.72-10.535,10.535s4.72,10.535,10.535,10.535c5.826,0,10.535-4.72,10.535-10.535
	S438.108,240.724,432.282,240.724z"/>
<path d="M432.282,277.944c-5.815,0-10.535,4.72-10.535,10.535c0,5.826,4.72,10.535,10.535,10.535
	c5.826,0,10.535-4.709,10.535-10.535C442.817,282.664,438.108,277.944,432.282,277.944z"/>
<path d="M432.282,315.175c-5.815,0-10.535,4.709-10.535,10.535c0,5.815,4.72,10.535,10.535,10.535
	c5.826,0,10.535-4.72,10.535-10.535C442.817,319.884,438.108,315.175,432.282,315.175z"/>
<path d="M432.282,352.395c-5.815,0-10.535,4.72-10.535,10.535c0,5.815,4.72,10.535,10.535,10.535c5.826,0,10.535-4.72,10.535-10.535
	C442.817,357.115,438.108,352.395,432.282,352.395z"/>
<path d="M395.062,240.724c-5.815,0-10.535,4.72-10.535,10.535s4.72,10.535,10.535,10.535c5.815,0,10.535-4.72,10.535-10.535
	S400.877,240.724,395.062,240.724z"/>
<path d="M395.062,277.944c-5.815,0-10.535,4.72-10.535,10.535c0,5.826,4.72,10.535,10.535,10.535
	c5.815,0,10.535-4.709,10.535-10.535C405.597,282.664,400.877,277.944,395.062,277.944z"/>
<path d="M395.062,352.395c-5.815,0-10.535,4.72-10.535,10.535c0,5.815,4.72,10.535,10.535,10.535c5.815,0,10.535-4.72,10.535-10.535
	C405.597,357.115,400.877,352.395,395.062,352.395z"/>
<path d="M350.467,240.724c-5.826,0-10.535,4.72-10.535,10.535s4.709,10.535,10.535,10.535c5.815,0,10.535-4.72,10.535-10.535
	S356.282,240.724,350.467,240.724z"/>
<path d="M350.467,277.944c-5.826,0-10.535,4.72-10.535,10.535c0,5.826,4.709,10.535,10.535,10.535
	c5.815,0,10.535-4.709,10.535-10.535C361.002,282.664,356.282,277.944,350.467,277.944z"/>
<path d="M350.467,315.175c-5.826,0-10.535,4.709-10.535,10.535c0,5.815,4.709,10.535,10.535,10.535
	c5.815,0,10.535-4.72,10.535-10.535C361.002,319.884,356.282,315.175,350.467,315.175z"/>
<path d="M350.467,352.395c-5.826,0-10.535,4.72-10.535,10.535c0,5.815,4.709,10.535,10.535,10.535
	c5.815,0,10.535-4.72,10.535-10.535C361.002,357.115,356.282,352.395,350.467,352.395z"/>
<path d="M313.237,240.724c-5.815,0-10.535,4.72-10.535,10.535s4.72,10.535,10.535,10.535c5.826,0,10.535-4.72,10.535-10.535
	S319.062,240.724,313.237,240.724z"/>
<path d="M313.237,277.944c-5.815,0-10.535,4.72-10.535,10.535c0,5.826,4.72,10.535,10.535,10.535
	c5.826,0,10.535-4.709,10.535-10.535C323.771,282.664,319.062,277.944,313.237,277.944z"/>
<path d="M313.237,315.175c-5.815,0-10.535,4.709-10.535,10.535c0,5.815,4.72,10.535,10.535,10.535
	c5.826,0,10.535-4.72,10.535-10.535C323.771,319.884,319.062,315.175,313.237,315.175z"/>
<path d="M313.237,352.395c-5.815,0-10.535,4.72-10.535,10.535c0,5.815,4.72,10.535,10.535,10.535c5.826,0,10.535-4.72,10.535-10.535
	C323.771,357.115,319.062,352.395,313.237,352.395z"/>
<path d="M276.016,240.724c-5.815,0-10.535,4.72-10.535,10.535s4.72,10.535,10.535,10.535s10.535-4.72,10.535-10.535
	S281.832,240.724,276.016,240.724z"/>
<path d="M276.016,277.944c-5.815,0-10.535,4.72-10.535,10.535c0,5.826,4.72,10.535,10.535,10.535s10.535-4.709,10.535-10.535
	C286.551,282.664,281.832,277.944,276.016,277.944z"/>
<path d="M276.016,315.175c-5.815,0-10.535,4.709-10.535,10.535c0,5.815,4.72,10.535,10.535,10.535s10.535-4.72,10.535-10.535
	C286.551,319.884,281.832,315.175,276.016,315.175z"/>
<path d="M231.422,240.724c-5.826,0-10.535,4.72-10.535,10.535s4.709,10.535,10.535,10.535c5.815,0,10.535-4.72,10.535-10.535
	S237.237,240.724,231.422,240.724z"/>
<path d="M231.422,277.944c-5.826,0-10.535,4.72-10.535,10.535c0,5.826,4.709,10.535,10.535,10.535
	c5.815,0,10.535-4.709,10.535-10.535C241.957,282.664,237.237,277.944,231.422,277.944z"/>
<path d="M231.422,315.175c-5.826,0-10.535,4.709-10.535,10.535c0,5.815,4.709,10.535,10.535,10.535
	c5.815,0,10.535-4.72,10.535-10.535C241.957,319.884,237.237,315.175,231.422,315.175z"/>
<path d="M194.191,261.794c5.826,0,10.535-4.72,10.535-10.535s-4.709-10.535-10.535-10.535c-5.815,0-10.535,4.72-10.535,10.535
	S188.376,261.794,194.191,261.794z"/>
<path d="M194.191,299.014c5.826,0,10.535-4.709,10.535-10.535c0-5.815-4.709-10.535-10.535-10.535
	c-5.815,0-10.535,4.72-10.535,10.535C183.656,294.305,188.376,299.014,194.191,299.014z"/>
<path d="M194.191,336.245c5.826,0,10.535-4.72,10.535-10.535c0-5.826-4.709-10.535-10.535-10.535
	c-5.815,0-10.535,4.709-10.535,10.535C183.656,331.525,188.376,336.245,194.191,336.245z"/>
<path d="M156.971,261.794c5.815,0,10.535-4.72,10.535-10.535s-4.72-10.535-10.535-10.535c-5.815,0-10.535,4.72-10.535,10.535
	S151.156,261.794,156.971,261.794z"/>
<path d="M156.971,299.014c5.815,0,10.535-4.709,10.535-10.535c0-5.815-4.72-10.535-10.535-10.535
	c-5.815,0-10.535,4.72-10.535,10.535C146.436,294.305,151.156,299.014,156.971,299.014z"/>
<path d="M156.971,336.245c5.815,0,10.535-4.72,10.535-10.535c0-5.826-4.72-10.535-10.535-10.535
	c-5.815,0-10.535,4.709-10.535,10.535C146.436,331.525,151.156,336.245,156.971,336.245z"/>
<path d="M119.751,240.724c-5.826,0-10.535,4.72-10.535,10.535s4.709,10.535,10.535,10.535c5.815,0,10.535-4.72,10.535-10.535
	S125.566,240.724,119.751,240.724z"/>
<path d="M119.751,277.944c-5.826,0-10.535,4.72-10.535,10.535c0,5.826,4.709,10.535,10.535,10.535
	c5.815,0,10.535-4.709,10.535-10.535C130.286,282.664,125.566,277.944,119.751,277.944z"/>
<path d="M119.751,315.175c-5.826,0-10.535,4.709-10.535,10.535c0,5.815,4.709,10.535,10.535,10.535
	c5.815,0,10.535-4.72,10.535-10.535C130.286,319.884,125.566,315.175,119.751,315.175z"/>
<path d="M119.751,352.395c-5.826,0-10.535,4.72-10.535,10.535c0,5.815,4.709,10.535,10.535,10.535
	c5.815,0,10.535-4.72,10.535-10.535C130.286,357.115,125.566,352.395,119.751,352.395z"/>
<path d="M82.52,240.724c-5.815,0-10.535,4.72-10.535,10.535s4.72,10.535,10.535,10.535c5.826,0,10.535-4.72,10.535-10.535
	S88.346,240.724,82.52,240.724z"/>
<path d="M82.52,277.944c-5.815,0-10.535,4.72-10.535,10.535c0,5.826,4.72,10.535,10.535,10.535c5.826,0,10.535-4.709,10.535-10.535
	C93.055,282.664,88.346,277.944,82.52,277.944z"/>
<path d="M82.52,315.175c-5.815,0-10.535,4.709-10.535,10.535c0,5.815,4.72,10.535,10.535,10.535c5.826,0,10.535-4.72,10.535-10.535
	C93.055,319.884,88.346,315.175,82.52,315.175z"/>
<path d="M82.52,352.395c-5.815,0-10.535,4.72-10.535,10.535c0,5.815,4.72,10.535,10.535,10.535c5.826,0,10.535-4.72,10.535-10.535
	C93.055,357.115,88.346,352.395,82.52,352.395z"/>
<path d="M45.3,240.724c-5.815,0-10.535,4.72-10.535,10.535s4.72,10.535,10.535,10.535s10.535-4.72,10.535-10.535
	S51.116,240.724,45.3,240.724z"/>
<path d="M45.3,277.944c-5.815,0-10.535,4.72-10.535,10.535c0,5.826,4.72,10.535,10.535,10.535s10.535-4.709,10.535-10.535
	C55.835,282.664,51.116,277.944,45.3,277.944z"/>
<path d="M45.3,315.175c-5.815,0-10.535,4.709-10.535,10.535c0,5.815,4.72,10.535,10.535,10.535s10.535-4.72,10.535-10.535
	C55.835,319.884,51.116,315.175,45.3,315.175z"/>
<path d="M45.3,352.395c-5.815,0-10.535,4.72-10.535,10.535c0,5.815,4.72,10.535,10.535,10.535s10.535-4.72,10.535-10.535
	C55.835,357.115,51.116,352.395,45.3,352.395z"/>
<path d="M435.095,161.891h-2.897c-5.818,0-10.535,4.718-10.535,10.535c0,5.817,4.716,10.535,10.535,10.535h2.897
	c5.818,0,10.535-4.718,10.535-10.535C445.63,166.609,440.912,161.891,435.095,161.891z"/>
<path d="M473.632,161.891h-10.619c-5.818,0-10.535,4.718-10.535,10.535c0,5.817,4.716,10.535,10.535,10.535h10.619
	c9.538,0,17.298,7.76,17.298,17.298V385.58c0,1.742-1.418,3.16-3.16,3.16H24.23c-1.742,0-3.16-1.418-3.16-3.16V200.259
	c0-9.538,7.76-17.298,17.298-17.298h365.824c5.818,0,10.535-4.718,10.535-10.535c0-5.817-4.716-10.535-10.535-10.535H264.776
	v-27.749c0-6.001,4.886-10.883,10.893-10.883h27.391c5.818,0,10.535-4.718,10.535-10.535c0-5.817-4.716-10.535-10.535-10.535
	h-27.391c-17.624,0-31.963,14.334-31.963,31.953v27.749H38.368C17.212,161.891,0,179.103,0,200.259V385.58
	c0,13.362,10.87,24.23,24.23,24.23H487.77c13.36,0,24.23-10.869,24.23-24.23V200.259C512,179.103,494.788,161.891,473.632,161.891z"
	/>
<path d="M65.317,212.986c0-5.817-4.717-10.535-10.535-10.535H45.3c-5.818,0-10.535,4.718-10.535,10.535s4.717,10.535,10.535,10.535
	h9.481C60.6,223.521,65.317,218.803,65.317,212.986z"/>
<path d="M129.233,212.986c0-5.817-4.717-10.535-10.535-10.535h-9.481c-5.818,0-10.535,4.718-10.535,10.535
	s4.717,10.535,10.535,10.535h9.481C124.516,223.521,129.233,218.803,129.233,212.986z"/>
<path d="M158.025,223.521h9.481c5.818,0,10.535-4.718,10.535-10.535s-4.717-10.535-10.535-10.535h-9.481
	c-5.818,0-10.535,4.718-10.535,10.535S152.206,223.521,158.025,223.521z"/>
<path d="M231.422,202.451h-9.481c-5.818,0-10.535,4.718-10.535,10.535s4.717,10.535,10.535,10.535h9.481
	c5.818,0,10.535-4.718,10.535-10.535S237.24,202.451,231.422,202.451z"/>
<path d="M296.033,212.986c0-5.817-4.716-10.535-10.535-10.535h-9.481c-5.818,0-10.535,4.718-10.535,10.535
	s4.716,10.535,10.535,10.535h9.481C291.316,223.521,296.033,218.803,296.033,212.986z"/>
<path d="M350.467,223.521c5.818,0,10.535-4.718,10.535-10.535s-4.716-10.535-10.535-10.535h-9.481
	c-5.818,0-10.535,4.718-10.535,10.535s4.716,10.535,10.535,10.535H350.467z"/>
<path d="M466.7,202.451h-71.638c-5.818,0-10.535,4.718-10.535,10.535s4.716,10.535,10.535,10.535H466.7
	c5.818,0,10.535-4.718,10.535-10.535S472.518,202.451,466.7,202.451z"/>
<path d="M156.971,373.465h119.045c5.818,0,10.535-4.718,10.535-10.535s-4.716-10.535-10.535-10.535H156.971
	c-5.818,0-10.535,4.718-10.535,10.535S151.153,373.465,156.971,373.465z"/>
</svg>